<svg width="336" height="347" viewBox="0 0 336 347" fill="none" xmlns="http://www.w3.org/2000/svg">
<path fill-rule="evenodd" clip-rule="evenodd" d="M126.625 120.289C96.8709 120.289 72.7505 96.1686 72.7505 66.4146V25H168V120.289H126.625ZM94.8936 72.6425H152.89C153.68 81.9175 149.223 100.468 125.077 100.468C100.93 100.468 94.8936 81.9175 94.8936 72.6425Z" fill="#1A1A1A"/>
<path fill-rule="evenodd" clip-rule="evenodd" d="M263.25 120.289H221.874C192.12 120.289 168 96.1687 168 66.4147V25H263.25V120.289ZM193.199 56.7106C191.789 58.3899 191.229 60.3625 191.334 61.5921L189.127 61.7805C188.963 59.864 189.788 57.3286 191.502 55.2865C193.252 53.2007 195.984 51.5627 199.686 51.5627C203.083 51.5627 205.919 53.2106 207.879 55.2263C209.802 57.2037 211.055 59.7198 211.055 61.6863H208.84C208.84 60.5068 207.987 58.5148 206.291 56.7708C204.632 55.065 202.337 53.778 199.686 53.778C196.703 53.778 194.571 55.075 193.199 56.7106ZM225.287 61.5924C225.183 60.3614 225.741 58.3881 227.145 56.709C228.512 55.0735 230.633 53.778 233.602 53.778C236.239 53.778 238.524 55.0636 240.176 56.7692C241.865 58.5128 242.716 60.5052 242.716 61.6863H244.931C244.931 59.7213 243.683 57.2058 241.767 55.2279C239.814 53.2121 236.988 51.5627 233.602 51.5627C229.911 51.5627 227.189 53.2022 225.445 55.2881C223.738 57.3305 222.917 59.8651 223.08 61.7801L225.287 61.5924Z" fill="#22B34F"/>
<path fill-rule="evenodd" clip-rule="evenodd" d="M114.126 120.289H72.7505V215.578H168V174.163C168 144.409 143.88 120.289 114.126 120.289ZM112.684 159.033C112.684 163.948 108.702 167.932 103.789 167.932C98.8757 167.932 94.8929 163.948 94.8929 159.033C94.8929 154.118 98.8757 150.134 103.789 150.134C108.702 150.134 112.684 154.118 112.684 159.033ZM146.245 159.033C146.245 163.948 142.263 167.932 137.35 167.932C132.437 167.932 128.454 163.948 128.454 159.033C128.454 154.118 132.437 150.134 137.35 150.134C142.263 150.134 146.245 154.118 146.245 159.033Z" fill="#22B34F"/>
<path fill-rule="evenodd" clip-rule="evenodd" d="M209.375 120.289C239.129 120.289 263.25 144.409 263.25 174.163V215.578H168V120.289H209.375ZM239.57 169.137C239.879 172.771 238.26 178.236 234.431 182.81C230.646 187.33 224.762 190.902 216.606 190.902C209.289 190.902 203.024 187.342 198.555 182.736C194.041 178.083 191.575 172.595 191.575 169.021H188.858C188.858 173.558 191.812 179.688 196.605 184.628C201.443 189.614 208.372 193.619 216.606 193.619C225.646 193.619 232.266 189.627 236.514 184.554C240.716 179.535 242.658 173.381 242.277 168.906L239.57 169.137Z" fill="#1A1A1A"/>
<path d="M28.7007 282.578V240H56.8923V247.422H37.7029V257.567H55.0212V264.99H37.7029V282.578H28.7007ZM99.7331 261.289C99.7331 265.932 98.853 269.882 97.0927 273.139C95.3463 276.396 92.9624 278.884 89.9408 280.603C86.9332 282.308 83.5513 283.16 79.7952 283.16C76.0113 283.16 72.6156 282.301 69.6079 280.582C66.6003 278.864 64.2232 276.376 62.4768 273.119C60.7304 269.861 59.8573 265.918 59.8573 261.289C59.8573 256.646 60.7304 252.696 62.4768 249.438C64.2232 246.181 66.6003 243.7 69.6079 241.995C72.6156 240.277 76.0113 239.417 79.7952 239.417C83.5513 239.417 86.9332 240.277 89.9408 241.995C92.9624 243.7 95.3463 246.181 97.0927 249.438C98.853 252.696 99.7331 256.646 99.7331 261.289ZM90.6061 261.289C90.6061 258.281 90.1557 255.745 89.2548 253.68C88.3677 251.614 87.1134 250.048 85.4917 248.981C83.8701 247.914 81.9712 247.38 79.7952 247.38C77.6191 247.38 75.7203 247.914 74.0986 248.981C72.477 250.048 71.2157 251.614 70.3148 253.68C69.4277 255.745 68.9842 258.281 68.9842 261.289C68.9842 264.297 69.4277 266.833 70.3148 268.898C71.2157 270.963 72.477 272.529 74.0986 273.597C75.7203 274.664 77.6191 275.198 79.7952 275.198C81.9712 275.198 83.8701 274.664 85.4917 273.597C87.1134 272.529 88.3677 270.963 89.2548 268.898C90.1557 266.833 90.6061 264.297 90.6061 261.289ZM127.158 252.245C126.991 250.568 126.278 249.265 125.016 248.336C123.755 247.408 122.043 246.944 119.881 246.944C118.412 246.944 117.172 247.151 116.16 247.567C115.148 247.969 114.372 248.531 113.831 249.251C113.305 249.972 113.041 250.79 113.041 251.705C113.013 252.467 113.173 253.132 113.519 253.7C113.88 254.269 114.372 254.761 114.995 255.176C115.619 255.578 116.34 255.932 117.158 256.237C117.975 256.528 118.849 256.777 119.777 256.985L123.603 257.9C125.46 258.316 127.165 258.87 128.717 259.563C130.269 260.256 131.614 261.109 132.75 262.12C133.887 263.132 134.767 264.324 135.391 265.696C136.028 267.069 136.354 268.642 136.368 270.416C136.354 273.022 135.689 275.281 134.372 277.193C133.069 279.092 131.184 280.568 128.717 281.622C126.264 282.661 123.305 283.181 119.84 283.181C116.402 283.181 113.408 282.654 110.858 281.601C108.322 280.548 106.34 278.988 104.912 276.923C103.498 274.844 102.757 272.273 102.688 269.21H111.399C111.496 270.638 111.905 271.83 112.625 272.786C113.36 273.728 114.337 274.442 115.557 274.927C116.79 275.399 118.183 275.634 119.736 275.634C121.26 275.634 122.584 275.412 123.707 274.969C124.843 274.525 125.723 273.909 126.347 273.119C126.971 272.328 127.283 271.421 127.283 270.395C127.283 269.439 126.998 268.635 126.43 267.983C125.876 267.332 125.058 266.777 123.977 266.32C122.91 265.863 121.6 265.447 120.048 265.073L115.411 263.908C111.821 263.035 108.987 261.67 106.908 259.813C104.829 257.955 103.796 255.454 103.81 252.307C103.796 249.729 104.482 247.477 105.869 245.551C107.268 243.624 109.188 242.12 111.627 241.039C114.067 239.958 116.839 239.417 119.944 239.417C123.104 239.417 125.862 239.958 128.218 241.039C130.588 242.12 132.432 243.624 133.748 245.551C135.065 247.477 135.744 249.709 135.786 252.245H127.158ZM163.179 252.245C163.013 250.568 162.299 249.265 161.038 248.336C159.777 247.408 158.065 246.944 155.903 246.944C154.434 246.944 153.193 247.151 152.181 247.567C151.169 247.969 150.393 248.531 149.853 249.251C149.326 249.972 149.063 250.79 149.063 251.705C149.035 252.467 149.194 253.132 149.541 253.7C149.901 254.269 150.393 254.761 151.017 255.176C151.641 255.578 152.361 255.932 153.179 256.237C153.997 256.528 154.87 256.777 155.799 256.985L159.624 257.9C161.481 258.316 163.186 258.87 164.739 259.563C166.291 260.256 167.635 261.109 168.772 262.12C169.908 263.132 170.789 264.324 171.412 265.696C172.05 267.069 172.376 268.642 172.389 270.416C172.376 273.022 171.71 275.281 170.394 277.193C169.091 279.092 167.206 280.568 164.739 281.622C162.285 282.661 159.326 283.181 155.861 283.181C152.424 283.181 149.43 282.654 146.88 281.601C144.343 280.548 142.361 278.988 140.934 276.923C139.52 274.844 138.778 272.273 138.709 269.21H147.42C147.517 270.638 147.926 271.83 148.647 272.786C149.381 273.728 150.359 274.442 151.578 274.927C152.812 275.399 154.205 275.634 155.757 275.634C157.282 275.634 158.605 275.412 159.728 274.969C160.865 274.525 161.745 273.909 162.368 273.119C162.992 272.328 163.304 271.421 163.304 270.395C163.304 269.439 163.02 268.635 162.452 267.983C161.897 267.332 161.079 266.777 159.998 266.32C158.931 265.863 157.621 265.447 156.069 265.073L151.433 263.908C147.843 263.035 145.009 261.67 142.93 259.813C140.851 257.955 139.818 255.454 139.832 252.307C139.818 249.729 140.504 247.477 141.89 245.551C143.29 243.624 145.21 242.12 147.649 241.039C150.088 239.958 152.86 239.417 155.965 239.417C159.125 239.417 161.883 239.958 164.24 241.039C166.61 242.12 168.453 243.624 169.77 245.551C171.087 247.477 171.766 249.709 171.807 252.245H163.179ZM224.879 254.906H215.773C215.607 253.728 215.267 252.682 214.754 251.767C214.241 250.838 213.583 250.048 212.779 249.397C211.975 248.745 211.047 248.246 209.993 247.9C208.954 247.553 207.824 247.38 206.604 247.38C204.401 247.38 202.481 247.928 200.846 249.023C199.21 250.104 197.942 251.684 197.041 253.763C196.14 255.828 195.69 258.337 195.69 261.289C195.69 264.324 196.14 266.875 197.041 268.94C197.956 271.005 199.231 272.564 200.866 273.617C202.502 274.671 204.394 275.198 206.542 275.198C207.748 275.198 208.864 275.038 209.889 274.719C210.929 274.401 211.851 273.936 212.654 273.326C213.458 272.703 214.124 271.947 214.65 271.06C215.191 270.173 215.565 269.161 215.773 268.025L224.879 268.066C224.644 270.021 224.054 271.906 223.112 273.721C222.183 275.523 220.929 277.138 219.349 278.566C217.783 279.979 215.912 281.102 213.736 281.934C211.573 282.751 209.127 283.16 206.397 283.16C202.599 283.16 199.203 282.301 196.209 280.582C193.229 278.864 190.873 276.376 189.141 273.119C187.422 269.861 186.563 265.918 186.563 261.289C186.563 256.646 187.436 252.696 189.182 249.438C190.929 246.181 193.299 243.7 196.292 241.995C199.286 240.277 202.654 239.417 206.397 239.417C208.864 239.417 211.151 239.764 213.257 240.457C215.378 241.15 217.256 242.162 218.892 243.492C220.527 244.809 221.858 246.424 222.883 248.336C223.923 250.249 224.588 252.439 224.879 254.906ZM237.683 240V282.578H228.826V240H237.683ZM262.914 268.981V250.644H271.771V282.578H263.268V276.778H262.935C262.214 278.649 261.016 280.153 259.338 281.289C257.675 282.426 255.645 282.994 253.247 282.994C251.112 282.994 249.234 282.509 247.613 281.539C245.991 280.568 244.723 279.189 243.808 277.401C242.907 275.613 242.45 273.472 242.436 270.977V250.644H251.293V269.397C251.306 271.282 251.812 272.772 252.81 273.867C253.808 274.962 255.146 275.509 256.823 275.509C257.89 275.509 258.888 275.267 259.817 274.782C260.745 274.283 261.494 273.548 262.062 272.578C262.644 271.608 262.928 270.409 262.914 268.981ZM276.68 282.578V240H285.537V256.008H285.807C286.195 255.149 286.756 254.276 287.491 253.389C288.239 252.488 289.21 251.739 290.402 251.143C291.607 250.533 293.104 250.228 294.892 250.228C297.221 250.228 299.369 250.838 301.337 252.058C303.305 253.264 304.878 255.086 306.057 257.526C307.235 259.951 307.824 262.994 307.824 266.653C307.824 270.215 307.249 273.222 306.098 275.676C304.962 278.115 303.409 279.965 301.441 281.227C299.487 282.474 297.297 283.098 294.871 283.098C293.153 283.098 291.691 282.814 290.485 282.245C289.293 281.677 288.316 280.963 287.553 280.104C286.791 279.231 286.209 278.351 285.807 277.464H285.412V282.578H276.68ZM285.349 266.611C285.349 268.51 285.613 270.166 286.139 271.58C286.666 272.994 287.428 274.096 288.426 274.886C289.424 275.662 290.637 276.05 292.065 276.05C293.506 276.05 294.726 275.655 295.724 274.865C296.722 274.061 297.477 272.952 297.99 271.538C298.517 270.111 298.78 268.468 298.78 266.611C298.78 264.768 298.524 263.146 298.011 261.746C297.498 260.346 296.743 259.251 295.745 258.461C294.747 257.671 293.52 257.276 292.065 257.276C290.623 257.276 289.404 257.657 288.406 258.42C287.422 259.182 286.666 260.263 286.139 261.663C285.613 263.063 285.349 264.712 285.349 266.611Z" fill="#1A1A1A"/>
<path d="M109.331 296.654V315.578H107.04V296.654H109.331ZM115.176 296.654V315.578H112.885V296.654H115.176ZM121.022 296.654V315.578H118.73V296.654H121.022ZM123.541 298.687V296.654H137.733V298.687H131.783V315.578H129.491V298.687H123.541ZM142.297 312.991L142.149 313.989C142.044 314.691 141.884 315.443 141.668 316.243C141.459 317.044 141.24 317.799 141.012 318.507C140.784 319.216 140.597 319.779 140.449 320.198H138.786C138.866 319.804 138.97 319.283 139.1 318.637C139.229 317.99 139.358 317.266 139.488 316.465C139.623 315.671 139.734 314.857 139.82 314.026L139.931 312.991H142.297ZM151.869 315.578V296.654H154.161V306.042H154.382L162.883 296.654H165.877L157.931 305.192L165.877 315.578H163.105L156.526 306.782L154.161 309.443V315.578H151.869ZM171.683 315.911C170.784 315.911 169.968 315.741 169.235 315.403C168.502 315.058 167.919 314.562 167.488 313.915C167.057 313.262 166.841 312.473 166.841 311.549C166.841 310.736 167.002 310.077 167.322 309.572C167.642 309.061 168.07 308.66 168.606 308.371C169.142 308.081 169.734 307.866 170.38 307.724C171.033 307.576 171.689 307.459 172.348 307.373C173.211 307.262 173.91 307.179 174.446 307.123C174.988 307.062 175.382 306.96 175.629 306.819C175.881 306.677 176.008 306.43 176.008 306.079V306.005C176.008 305.094 175.758 304.385 175.259 303.88C174.766 303.375 174.018 303.123 173.014 303.123C171.973 303.123 171.156 303.35 170.565 303.806C169.974 304.262 169.558 304.749 169.318 305.266L167.248 304.527C167.618 303.665 168.11 302.993 168.726 302.513C169.349 302.026 170.026 301.687 170.759 301.496C171.498 301.299 172.225 301.201 172.94 301.201C173.396 301.201 173.919 301.256 174.511 301.367C175.108 301.472 175.684 301.69 176.239 302.023C176.799 302.356 177.264 302.858 177.634 303.529C178.003 304.201 178.188 305.1 178.188 306.227V315.578H176.008V313.656H175.897C175.749 313.964 175.502 314.294 175.157 314.645C174.812 314.996 174.354 315.295 173.781 315.541C173.208 315.788 172.509 315.911 171.683 315.911ZM172.016 313.952C172.878 313.952 173.605 313.782 174.196 313.444C174.794 313.105 175.244 312.668 175.546 312.132C175.854 311.596 176.008 311.032 176.008 310.441V308.445C175.915 308.556 175.712 308.657 175.398 308.75C175.09 308.836 174.732 308.913 174.326 308.981C173.925 309.042 173.534 309.098 173.152 309.147C172.777 309.19 172.472 309.227 172.238 309.258C171.671 309.332 171.141 309.452 170.648 309.618C170.162 309.778 169.767 310.022 169.466 310.348C169.17 310.669 169.022 311.106 169.022 311.66C169.022 312.418 169.302 312.991 169.863 313.379C170.43 313.761 171.147 313.952 172.016 313.952ZM183.308 296.654V315.578H181.128V296.654H183.308ZM187.666 320.9C187.296 320.9 186.967 320.87 186.677 320.808C186.388 320.753 186.187 320.697 186.077 320.642L186.631 318.72C187.161 318.855 187.629 318.905 188.035 318.868C188.442 318.831 188.802 318.649 189.117 318.322C189.437 318.002 189.73 317.482 189.994 316.761L190.401 315.652L185.153 301.385H187.518L191.436 312.695H191.584L195.501 301.385H197.867L191.842 317.648C191.571 318.381 191.236 318.988 190.835 319.468C190.435 319.955 189.97 320.315 189.44 320.549C188.916 320.783 188.325 320.9 187.666 320.9ZM203.449 315.911C202.55 315.911 201.733 315.741 201 315.403C200.267 315.058 199.685 314.562 199.254 313.915C198.823 313.262 198.607 312.473 198.607 311.549C198.607 310.736 198.767 310.077 199.088 309.572C199.408 309.061 199.836 308.66 200.372 308.371C200.908 308.081 201.499 307.866 202.146 307.724C202.799 307.576 203.455 307.459 204.114 307.373C204.977 307.262 205.676 307.179 206.212 307.123C206.754 307.062 207.148 306.96 207.394 306.819C207.647 306.677 207.773 306.43 207.773 306.079V306.005C207.773 305.094 207.524 304.385 207.025 303.88C206.532 303.375 205.784 303.123 204.779 303.123C203.738 303.123 202.922 303.35 202.331 303.806C201.74 304.262 201.324 304.749 201.083 305.266L199.014 304.527C199.383 303.665 199.876 302.993 200.492 302.513C201.114 302.026 201.792 301.687 202.525 301.496C203.264 301.299 203.991 301.201 204.706 301.201C205.161 301.201 205.685 301.256 206.276 301.367C206.874 301.472 207.45 301.69 208.004 302.023C208.565 302.356 209.03 302.858 209.4 303.529C209.769 304.201 209.954 305.1 209.954 306.227V315.578H207.773V313.656H207.662C207.515 313.964 207.268 314.294 206.923 314.645C206.578 314.996 206.119 315.295 205.546 315.541C204.974 315.788 204.274 315.911 203.449 315.911ZM203.782 313.952C204.644 313.952 205.371 313.782 205.962 313.444C206.56 313.105 207.009 312.668 207.311 312.132C207.619 311.596 207.773 311.032 207.773 310.441V308.445C207.681 308.556 207.478 308.657 207.163 308.75C206.855 308.836 206.498 308.913 206.092 308.981C205.691 309.042 205.3 309.098 204.918 309.147C204.542 309.19 204.237 309.227 204.003 309.258C203.437 309.332 202.907 309.452 202.414 309.618C201.927 309.778 201.533 310.022 201.231 310.348C200.936 310.669 200.788 311.106 200.788 311.66C200.788 312.418 201.068 312.991 201.629 313.379C202.195 313.761 202.913 313.952 203.782 313.952ZM215.074 307.04V315.578H212.893V301.385H215V303.603H215.185C215.517 302.882 216.023 302.303 216.7 301.866C217.378 301.422 218.253 301.201 219.324 301.201C220.285 301.201 221.126 301.398 221.847 301.792C222.568 302.18 223.128 302.771 223.529 303.566C223.929 304.355 224.129 305.352 224.129 306.56V315.578H221.949V306.708C221.949 305.593 221.659 304.724 221.08 304.102C220.501 303.474 219.706 303.159 218.696 303.159C218 303.159 217.378 303.31 216.83 303.612C216.287 303.914 215.859 304.355 215.545 304.934C215.231 305.513 215.074 306.215 215.074 307.04ZM227.073 315.578V301.385H229.254V315.578H227.073ZM228.182 299.02C227.757 299.02 227.39 298.875 227.082 298.586C226.781 298.296 226.63 297.948 226.63 297.542C226.63 297.135 226.781 296.787 227.082 296.497C227.39 296.208 227.757 296.063 228.182 296.063C228.607 296.063 228.97 296.208 229.272 296.497C229.58 296.787 229.734 297.135 229.734 297.542C229.734 297.948 229.58 298.296 229.272 298.586C228.97 298.875 228.607 299.02 228.182 299.02Z" fill="#1A1A1A"/>
</svg>
