<svg width="215" height="225" viewBox="0 0 215 225" fill="none" xmlns="http://www.w3.org/2000/svg">
<rect x="45.1602" y="43.4336" width="24.1909" height="9.21537" fill="#1A1A1A"/>
<rect x="45.1602" y="61.8633" width="24.1909" height="9.21537" fill="#1A1A1A"/>
<rect x="76.8398" y="81.4414" width="24.1909" height="9.21537" fill="#1A1A1A"/>
<rect x="75.1133" y="43.4336" width="24.1909" height="9.21537" fill="#1A1A1A"/>
<rect x="107.371" y="43.4336" width="28.7992" height="9.21554" fill="#1A1A1A"/>
<rect x="107.371" y="43.4336" width="28.7992" height="9.21554" fill="#1A1A1A"/>
<rect x="140.777" y="43.4336" width="28.7992" height="9.21554" fill="#1A1A1A"/>
<rect x="107.371" y="61.8633" width="28.7992" height="9.21554" fill="#1A1A1A"/>
<rect x="107.371" y="61.8633" width="28.7992" height="9.21554" fill="#1A1A1A"/>
<rect x="140.777" y="61.8633" width="28.7992" height="9.21554" fill="#1A1A1A"/>
<rect x="107.371" y="71.0781" width="27.6461" height="9.21558" transform="rotate(-90 107.371 71.0781)" fill="#1A1A1A"/>
<rect x="107.371" y="71.0781" width="27.6461" height="9.21558" transform="rotate(-90 107.371 71.0781)" fill="#1A1A1A"/>
<rect x="140.777" y="71.0781" width="27.6461" height="9.21558" transform="rotate(-90 140.777 71.0781)" fill="#1A1A1A"/>
<rect x="126.945" y="89.5078" width="27.6461" height="9.21558" transform="rotate(-90 126.945 89.5078)" fill="#1A1A1A"/>
<rect x="126.945" y="89.5078" width="27.6461" height="9.21558" transform="rotate(-90 126.945 89.5078)" fill="#1A1A1A"/>
<rect x="160.355" y="89.5078" width="27.6461" height="9.21558" transform="rotate(-90 160.355 89.5078)" fill="#1A1A1A"/>
<rect x="107.371" y="81.4414" width="28.7992" height="9.21554" fill="#1A1A1A"/>
<rect x="107.371" y="81.4414" width="28.7992" height="9.21554" fill="#1A1A1A"/>
<rect x="140.777" y="81.4414" width="28.7992" height="9.21554" fill="#1A1A1A"/>
<rect x="45.1602" y="43.4336" width="9.79168" height="47.2294" fill="#1A1A1A"/>
<rect x="73.9609" y="43.4336" width="9.79168" height="47.2294" fill="#1A1A1A"/>
<rect x="92.9727" y="43.4336" width="9.79168" height="47.2294" fill="#1A1A1A"/>
<rect x="45.1602" y="99.875" width="6.9116" height="33.4053" fill="#1A1A1A"/>
<rect x="45.1602" y="133.285" width="6.91153" height="20.735" transform="rotate(-90 45.1602 133.285)" fill="#1A1A1A"/>
<rect x="69.3516" y="106.785" width="6.91153" height="20.735" transform="rotate(-90 69.3516 106.785)" fill="#1A1A1A"/>
<rect x="103.914" y="106.785" width="6.91153" height="20.735" transform="rotate(-90 103.914 106.785)" fill="#1A1A1A"/>
<rect x="128.102" y="106.785" width="6.91153" height="17.2792" transform="rotate(-90 128.102 106.785)" fill="#1A1A1A"/>
<rect x="128.102" y="120.035" width="6.91153" height="17.2792" transform="rotate(-90 128.102 120.035)" fill="#1A1A1A"/>
<rect x="128.102" y="133.285" width="6.91153" height="17.2792" transform="rotate(-90 128.102 133.285)" fill="#1A1A1A"/>
<rect x="148.254" y="106.785" width="6.91153" height="17.2792" transform="rotate(-90 148.254 106.785)" fill="#1A1A1A"/>
<rect x="148.254" y="133.285" width="6.91153" height="17.2792" transform="rotate(-90 148.254 133.285)" fill="#1A1A1A"/>
<rect x="58.9844" y="99.875" width="6.9116" height="33.4053" fill="#1A1A1A"/>
<rect x="69.3516" y="99.875" width="6.9116" height="33.4053" fill="#1A1A1A"/>
<rect x="83.1719" y="99.875" width="6.9116" height="33.4053" fill="#1A1A1A"/>
<rect x="93.543" y="99.875" width="6.9116" height="33.4053" fill="#1A1A1A"/>
<rect x="110.816" y="99.875" width="6.9116" height="33.4053" fill="#1A1A1A"/>
<rect x="162.086" y="103.336" width="6.91168" height="26.4942" fill="#1A1A1A"/>
<rect x="128.102" y="99.875" width="6.9116" height="33.4053" fill="#1A1A1A"/>
<rect x="148.254" y="99.875" width="6.9116" height="33.4053" fill="#1A1A1A"/>
<rect x="25" y="25" width="164.731" height="6.33565" fill="#1A1A1A"/>
<rect x="25" y="145.957" width="164.731" height="6.33565" fill="#1A1A1A"/>
<rect x="183.398" y="152.289" width="124.985" height="6.33579" transform="rotate(-90 183.398 152.289)" fill="#1A1A1A"/>
<rect x="25" y="149.988" width="124.985" height="6.33579" transform="rotate(-90 25 149.988)" fill="#1A1A1A"/>
<rect x="173.598" y="168.727" width="6.28693" height="30.2909" fill="#1A1A1A"/>
<rect x="158.168" y="199.016" width="6.28679" height="21.7185" transform="rotate(-90 158.168 199.016)" fill="#1A1A1A"/>
<rect x="165.602" y="171.578" width="6.28679" height="24.0046" transform="rotate(-90 165.602 171.578)" fill="#1A1A1A"/>
<rect x="158.168" y="165.293" width="6.28693" height="33.7201" fill="#1A1A1A"/>
<rect x="165.602" y="168.727" width="6.28693" height="22.2895" fill="#1A1A1A"/>
<rect x="62.7188" y="171.578" width="6.28679" height="37.7216" transform="rotate(-90 62.7188 171.578)" fill="#1A1A1A"/>
<rect x="67.2891" y="180.152" width="6.28679" height="33.1493" transform="rotate(-90 67.2891 180.152)" fill="#1A1A1A"/>
<rect x="67.293" y="199.016" width="6.28679" height="15.4316" transform="rotate(-90 67.293 199.016)" fill="#1A1A1A"/>
<rect x="94.1523" y="165.293" width="6.28693" height="33.7201" fill="#1A1A1A"/>
<rect x="85.0078" y="173.867" width="6.28693" height="25.1472" fill="#1A1A1A"/>
<rect x="67.293" y="173.867" width="6.28693" height="25.1472" fill="#1A1A1A"/>
<rect x="76.4336" y="183.582" width="6.28693" height="14.8597" fill="#1A1A1A"/>
<rect x="40.4297" y="165.293" width="6.28693" height="33.1485" fill="#1A1A1A"/>
<rect x="49.0039" y="184.727" width="6.28693" height="13.7166" fill="#1A1A1A"/>
<rect x="56.4336" y="173.867" width="6.28693" height="24.5756" fill="#1A1A1A"/>
<rect x="25" y="173.867" width="6.28693" height="24.5756" fill="#1A1A1A"/>
<rect x="25" y="179.582" width="6.28679" height="37.7216" transform="rotate(-90 25 179.582)" fill="#1A1A1A"/>
<rect x="25" y="171.578" width="6.28679" height="37.7216" transform="rotate(-90 25 171.578)" fill="#1A1A1A"/>
<rect x="25" y="198.441" width="6.28679" height="21.7185" transform="rotate(-90 25 198.441)" fill="#1A1A1A"/>
<rect x="49.0039" y="198.441" width="6.28679" height="13.7169" transform="rotate(-90 49.0039 198.441)" fill="#1A1A1A"/>
<rect x="121.023" y="165.293" width="6.28693" height="33.1485" fill="#1A1A1A"/>
<rect x="147.312" y="165.863" width="6.28693" height="33.1485" fill="#1A1A1A"/>
<rect x="183.32" y="165.863" width="6.28693" height="33.1485" fill="#1A1A1A"/>
<rect x="129.598" y="184.727" width="6.28693" height="13.7166" fill="#1A1A1A"/>
<rect x="137.027" y="173.867" width="6.28693" height="24.5756" fill="#1A1A1A"/>
<rect x="105.59" y="173.867" width="6.28693" height="24.5756" fill="#1A1A1A"/>
<rect x="105.59" y="179.582" width="6.28679" height="37.7216" transform="rotate(-90 105.59 179.582)" fill="#1A1A1A"/>
<rect x="100.445" y="171.578" width="6.28679" height="57.7254" transform="rotate(-90 100.445 171.578)" fill="#1A1A1A"/>
<rect x="105.59" y="198.441" width="6.28679" height="21.7185" transform="rotate(-90 105.59 198.441)" fill="#1A1A1A"/>
<rect x="129.598" y="198.441" width="6.28679" height="13.7169" transform="rotate(-90 129.598 198.441)" fill="#1A1A1A"/>
</svg>
