<svg width="230" height="231" viewBox="0 0 230 231" fill="none" xmlns="http://www.w3.org/2000/svg">
<mask id="mask0_23_1433" style="mask-type:luminance" maskUnits="userSpaceOnUse" x="117" y="32" width="85" height="84">
<path d="M201.069 74.0588C201.069 50.95 182.352 32.2166 159.265 32.2166C136.177 32.2166 117.461 50.95 117.461 74.0588C117.461 97.1673 136.177 115.901 159.265 115.901C182.352 115.901 201.069 97.1673 201.069 74.0588Z" fill="white"/>
</mask>
<g mask="url(#mask0_23_1433)">
<path d="M201.069 74.0588C201.069 50.95 182.352 32.2166 159.265 32.2166C136.177 32.2166 117.461 50.95 117.461 74.0588C117.461 97.1673 136.177 115.901 159.265 115.901C182.352 115.901 201.069 97.1673 201.069 74.0588Z" fill="#272727"/>
<path d="M174.348 83.8563L94.8315 57.9963L68.9951 137.585L148.511 163.445L174.348 83.8563Z" fill="#A55EEA"/>
</g>
<mask id="mask1_23_1433" style="mask-type:luminance" maskUnits="userSpaceOnUse" x="31" y="117" width="84" height="84">
<path d="M34.0919 174.749C42.7408 196.175 67.1055 206.526 88.5122 197.87C109.919 189.213 120.261 164.826 111.612 143.4C102.964 121.974 78.5986 111.622 57.192 120.279C35.7854 128.935 25.4431 153.322 34.0919 174.749Z" fill="white"/>
</mask>
<g mask="url(#mask1_23_1433)">
<path d="M34.0919 174.749C42.7408 196.175 67.1055 206.526 88.5122 197.87C109.919 189.213 120.261 164.826 111.612 143.4C102.964 121.974 78.5986 111.622 57.192 120.279C35.7854 128.935 25.4431 153.322 34.0919 174.749Z" fill="#272727"/>
<path d="M55.1974 155.646L138.602 149.809L132.77 66.3279L49.3652 72.1655L55.1974 155.646Z" fill="#86D34A"/>
</g>
<mask id="mask2_23_1433" style="mask-type:luminance" maskUnits="userSpaceOnUse" x="110" y="110" width="95" height="96">
<path d="M204.696 122.477L121.901 110.83L110.265 193.7L193.06 205.346L204.696 122.477Z" fill="white"/>
</mask>
<g mask="url(#mask2_23_1433)">
<path d="M204.696 122.477L121.901 110.83L110.265 193.7L193.06 205.346L204.696 122.477Z" fill="#272727"/>
<path d="M144.55 173.44L178.557 96.99L102.177 62.9526L68.1707 139.402L144.55 173.44Z" fill="#41CEC7"/>
</g>
<mask id="mask3_23_1433" style="mask-type:luminance" maskUnits="userSpaceOnUse" x="25" y="25" width="99" height="99">
<path d="M107.072 25L25 40.9677L40.9532 123.114L123.025 107.147L107.072 25Z" fill="white"/>
</mask>
<g mask="url(#mask3_23_1433)">
<path d="M107.072 25L25 40.9677L40.9532 123.114L123.025 107.147L107.072 25Z" fill="#272727"/>
<path d="M157.301 149.305L164.587 65.9389L81.2972 58.6453L74.0103 142.011L157.301 149.305Z" fill="#FFE317"/>
</g>
</svg>
